Coordinates
version=1
nRows=6
nColumns=36
inDegrees=yes

Units are S.I. units (second, meters, Newtons, ...)
If the header above contains a line with 'inDegrees', this indicates whether rotational values are in degrees (yes) or radians (no).

endheader
time	pelvis_tilt	pelvis_list	pelvis_rotation	pelvis_tx	pelvis_ty	pelvis_tz	hip_flexion_r	hip_adduction_r	hip_rotation_r	knee_angle_r	knee_angle_r_beta	ankle_angle_r	subtalar_angle_r	mtp_angle_r	hip_flexion_l	hip_adduction_l	hip_rotation_l	knee_angle_l	knee_angle_l_beta	ankle_angle_l	subtalar_angle_l	mtp_angle_l	lumbar_extension	lumbar_bending	lumbar_rotation	arm_flex_r	arm_add_r	arm_rot_r	elbow_flex_r	pro_sup_r	arm_flex_l	arm_add_l	arm_rot_l	elbow_flex_l	pro_sup_l
      4.07000000	    -23.94893876	      0.55047082	     -3.30614641	     -0.38575948	      0.88352105	     -0.65147515	     68.62716934	      0.18994599	      3.05850313	     59.66324944	      1.04132015	     16.77826193	     -7.25824940	     -7.49999857	     67.85109674	      0.07151804	     -4.18123743	     61.13993020	      1.06709309	     19.09788679	     -9.18525252	     -7.49999857	    -41.78188894	      2.62194048	     -5.12133111	     -4.15836539	    -19.85452643	      1.56895334	     93.84501568	    100.36891269	    -19.92911488	    -13.35374669	    -11.16545714	     88.86617022	     79.07395825
      4.08000000	    -23.73069368	      0.52117663	     -3.35262980	     -0.38275117	      0.88864010	     -0.65190898	     67.60590055	      0.11316139	      2.94541389	     58.66207845	      1.02384641	     16.58895185	     -7.05023612	     -7.49999858	     66.83666019	      0.12584412	     -4.16675162	     60.15151011	      1.04984190	     18.82234750	     -9.28572451	     -7.49999858	    -41.43382905	      2.65811159	     -5.12999448	     -4.17824477	    -19.71854263	      1.57041424	     92.96878411	    100.15588144	    -19.82785085	    -13.20971037	    -10.98258197	     88.07682211	     79.08020378
      4.09000000	    -23.53483072	      0.41785841	     -3.42747233	     -0.37976470	      0.89361939	     -0.65216151	     66.60518885	      0.14194674	      2.83556469	     57.66395063	      1.00642580	     16.35720486	     -6.80917499	     -7.49999859	     65.86819901	      0.09422225	     -4.08394129	     59.20330933	      1.03329268	     18.56057351	     -9.33331584	     -7.49999859	    -41.02817104	      2.71685294	     -5.10248208	     -4.21593462	    -19.58396661	      1.54296137	     92.04003515	     99.93427742	    -19.74448167	    -13.06117026	    -10.81033930	     87.27407492	     79.06141044
      4.10000000	    -23.54661843	      0.41402901	     -3.51248923	     -0.37711748	      0.89805479	     -0.65261020	     65.88519607	      0.11594675	      2.79141481	     56.64528809	      0.98864678	     16.21615703	     -6.62563251	     -7.49999860	     65.13269700	      0.14629689	     -4.04600620	     58.22000409	      1.01613076	     18.44628100	     -9.29136665	     -7.49999860	    -40.41432804	      2.73608359	     -5.07881161	     -4.36695932	    -19.46267250	      1.54812450	     91.52247937	     99.83323612	    -19.80370736	    -12.86339909	    -10.69866230	     86.89716134	     79.05106824
      4.11000000	    -23.17706162	      0.46151889	     -3.61010049	     -0.37402605	      0.90309213	     -0.65299912	     64.76877387	      0.04323539	      2.75665284	     55.71272010	      0.97237040	     15.87730020	     -6.45023382	     -7.49999861	     63.96755571	      0.24221302	     -4.04553128	     57.26655016	      0.99948985	     18.07864101	     -9.50136434	     -7.49999861	    -40.06894758	      2.69873625	     -5.10971225	     -4.29531746	    -19.17931832	      1.56186328	     90.34482278	     99.58815418	    -19.58818621	    -12.63898535	    -10.47993814	     85.79643242	     79.05396938
      4.12000000	    -23.12017963	      0.44737608	     -3.70788344	     -0.37130047	      0.90750319	     -0.65318381	     63.95561569	      0.09594248	      2.79016095	     54.69143586	      0.95454563	     15.72385011	     -6.30437340	     -7.49999862	     63.17418641	      0.25516229	     -3.99991682	     56.31585518	      0.98289709	     17.89045762	     -9.48396731	     -7.49999862	    -39.45086599	      2.69369876	     -5.09940524	     -4.48140107	    -19.05531116	      1.54039706	     89.72607441	     99.48486616	    -19.66505798	    -12.47731122	    -10.40191322	     85.39539401	     79.06902742
